<?xml version="1.0" standalone="no"?>
<!DOCTYPE svg PUBLIC "-//W3C//DTD SVG 20010904//EN"
 "http://www.w3.org/TR/2001/REC-SVG-20010904/DTD/svg10.dtd">
<svg version="1.0" xmlns="http://www.w3.org/2000/svg"
 width="1024.000000pt" height="1024.000000pt" viewBox="0 0 1024.000000 1024.000000"
 preserveAspectRatio="xMidYMid meet">

<g transform="translate(0.000000,1024.000000) scale(0.100000,-0.100000)"
fill="#000000" stroke="none">
<path d="M4945 8264 c-99 -30 -375 -107 -515 -144 -58 -15 -195 -52 -305 -83
-110 -30 -263 -71 -340 -91 -251 -64 -407 -106 -575 -156 -91 -27 -187 -54
-215 -60 -104 -21 -95 -14 -81 -67 12 -47 14 -48 47 -45 19 2 90 16 159 32
261 61 400 89 565 114 94 14 184 28 200 31 17 3 111 13 210 21 238 21 1428 31
1690 15 262 -17 409 -30 501 -47 45 -8 157 -25 250 -39 93 -14 201 -34 239
-45 39 -11 126 -33 193 -49 68 -17 142 -39 165 -50 22 -11 42 -19 43 -18 1 1
4 28 6 60 6 69 14 63 -147 107 -66 17 -190 52 -275 77 -85 25 -218 60 -295 78
-77 18 -153 38 -170 45 -16 6 -82 24 -145 39 -63 16 -205 53 -315 84 -110 30
-301 83 -425 116 -124 34 -254 70 -290 81 -78 24 -75 24 -175 -6z"/>
<path d="M4630 7210 l0 -485 95 3 95 3 1 322 c1 177 3 394 5 482 l2 160 -99 0
-99 0 0 -485z"/>
<path d="M4951 7230 c0 -256 3 -472 7 -480 6 -12 27 -15 97 -15 l90 0 2 480 1
480 -99 0 -99 1 1 -466z"/>
<path d="M5276 7283 c1 -230 2 -449 3 -488 l1 -70 93 0 92 0 3 482 3 481 -38
-1 c-21 -1 -65 2 -98 6 l-60 7 1 -417z"/>
<path d="M4388 7683 l-78 -4 0 -482 0 -483 95 1 95 0 2 488 c3 482 3 487 -17
485 -11 -1 -55 -4 -97 -5z"/>
<path d="M5597 7680 c-1 -3 -1 -221 1 -485 l2 -480 95 -1 95 -1 0 476 0 477
-96 10 c-53 5 -97 7 -97 4z"/>
<path d="M4065 7663 l-80 -4 2 -247 c1 -136 2 -359 2 -496 1 -197 4 -246 14
-238 16 13 153 36 167 27 7 -4 10 136 10 448 0 250 3 469 6 486 6 28 4 31 -17
29 -13 -1 -60 -4 -104 -5z"/>
<path d="M5919 7666 c-2 -2 -3 -221 -1 -485 l2 -481 70 0 c38 0 80 -4 94 -10
l26 -10 0 480 c0 447 -1 479 -17 484 -10 2 -45 7 -78 11 -33 3 -67 8 -76 11
-8 2 -17 2 -20 0z"/>
<path d="M3800 7630 c-25 -5 -66 -11 -93 -15 l-47 -6 2 -490 c2 -269 5 -489 9
-489 3 0 10 5 15 10 6 6 46 13 90 16 l79 7 2 488 c1 269 -1 488 -5 488 -4 -1
-27 -5 -52 -9z"/>
<path d="M6240 7213 c0 -237 3 -457 6 -489 l6 -59 52 -3 c28 -2 68 -7 88 -11
l38 -9 0 282 c0 154 3 371 7 481 l6 200 -84 12 c-46 6 -92 14 -101 18 -17 7
-18 -17 -18 -422z"/>
<path d="M3505 7584 c-6 -2 -44 -7 -85 -12 l-75 -7 -3 -486 -2 -486 72 19 c40
10 83 17 96 15 l22 -4 0 483 c0 266 -3 484 -7 483 -5 0 -13 -2 -18 -5z"/>
<path d="M6560 7151 c0 -419 4 -536 20 -526 11 7 143 -15 157 -26 11 -10 13
68 15 455 1 256 2 474 2 483 1 13 -18 20 -89 34 -49 10 -93 18 -97 18 -5 1 -8
-196 -8 -438z"/>
<path d="M6880 7052 l0 -489 66 -6 c36 -4 79 -13 95 -21 l29 -14 2 464 c1 255
2 471 2 480 1 13 -18 21 -77 35 -43 10 -87 23 -97 29 -20 11 -20 4 -20 -478z"/>
<path d="M3150 7513 c-30 -7 -72 -15 -94 -18 l-39 -6 7 -67 c3 -37 6 -253 6
-480 0 -303 3 -411 11 -406 6 4 48 12 93 18 l81 11 -5 480 -5 480 -55 -12z"/>
<path d="M4441 6574 c-102 -7 -212 -17 -245 -23 -34 -6 -119 -16 -191 -21
-146 -11 -224 -21 -440 -56 -82 -13 -184 -28 -225 -34 -41 -5 -138 -21 -215
-36 -77 -15 -150 -28 -162 -30 -34 -6 -28 -18 30 -60 83 -61 416 -340 484
-407 l61 -60 104 21 c222 47 664 104 923 121 402 27 896 21 1234 -14 211 -22
621 -84 723 -110 28 -7 51 11 218 170 164 157 281 253 350 291 28 15 50 31 50
35 0 5 -17 11 -37 14 -21 3 -92 19 -158 35 -257 63 -850 132 -1460 170 -218
13 -819 10 -1044 -6z"/>
<path d="M4893 5723 c4 -71 7 -651 7 -1290 l0 -1162 150 -3 150 -3 1 645 c0
355 2 936 4 1293 l4 647 -161 0 -161 0 6 -127z"/>
<path d="M4540 5829 c-19 -4 -88 -11 -154 -15 l-118 -7 6 -36 c3 -20 6 -597 6
-1283 0 -993 3 -1247 13 -1243 6 2 75 6 152 8 l140 5 3 1283 c1 706 -1 1286
-5 1289 -5 4 -24 3 -43 -1z"/>
<path d="M5511 4552 l0 -1290 152 -4 c84 -2 153 -3 153 -3 1 0 4 574 7 1276
l6 1275 -145 13 c-80 7 -151 14 -159 17 -11 5 -14 -194 -14 -1284z"/>
<path d="M3927 5759 c-15 -4 -69 -12 -120 -19 -50 -6 -108 -13 -127 -16 l-35
-5 3 -1271 c1 -700 4 -1273 5 -1274 1 -1 49 4 107 12 58 7 128 13 155 14 l50
0 -3 1192 c-1 656 -3 1234 -5 1284 l-2 90 -28 -7z"/>
<path d="M6140 5768 c0 -2 -3 -471 -7 -1043 -5 -965 0 -1520 16 -1511 9 5 218
-13 263 -23 l38 -9 1 1152 c0 633 4 1203 9 1266 4 63 7 116 6 118 -2 1 -68 11
-147 22 -79 11 -152 23 -161 26 -10 3 -18 4 -18 2z"/>
<path d="M2450 4877 c-42 -32 -58 -53 -69 -86 l-13 -43 -42 6 c-35 5 -53 0
-126 -37 l-86 -43 18 -74 c9 -41 17 -86 18 -99 0 -23 -1 -24 -69 -18 -62 5
-72 3 -105 -19 -21 -14 -53 -32 -73 -40 l-36 -15 6 -104 6 -104 -47 -15 c-25
-9 -78 -35 -117 -58 -38 -23 -71 -42 -72 -43 -2 -1 8 -28 21 -61 13 -32 29
-85 36 -117 10 -52 15 -59 47 -72 20 -9 66 -20 103 -26 l67 -11 -15 -42 c-17
-51 -11 -120 14 -147 32 -35 135 -82 180 -82 39 0 133 43 134 61 1 4 10 18 21
31 l20 24 30 -29 c17 -16 60 -73 96 -128 l65 -98 -22 -220 c-12 -121 -20 -221
-18 -223 1 -2 28 1 58 7 30 5 76 8 102 6 28 -2 48 1 48 7 -5 94 -40 409 -47
416 -26 26 130 259 174 259 7 0 21 -15 29 -34 21 -43 88 -77 153 -80 70 -2
182 54 205 101 18 37 20 88 7 145 -9 37 -9 38 28 43 76 13 88 16 117 34 26 16
32 27 37 70 6 55 40 141 60 153 9 5 6 12 -8 23 -29 23 -113 66 -165 85 l-45
16 0 108 c0 107 0 108 -29 131 -40 32 -92 45 -179 45 l-76 0 6 33 c3 17 14 61
24 97 10 36 15 68 11 71 -22 19 -169 60 -204 57 -40 -3 -41 -2 -54 40 -7 24
-21 53 -31 64 -28 32 -100 78 -120 78 -10 -1 -43 -20 -73 -43z m29 -1179 c0
-24 -4 -64 -7 -91 l-7 -47 -48 71 c-26 38 -45 74 -42 80 6 9 59 27 88 28 14 1
17 -7 16 -41z m196 18 c18 -13 17 -16 -28 -66 -26 -29 -47 -56 -47 -61 0 -5
-4 -9 -10 -9 -6 0 -10 32 -10 75 l0 75 38 0 c21 0 47 -6 57 -14z"/>
<path d="M7497 4879 c-53 -37 -73 -64 -91 -122 -5 -16 -13 -18 -54 -12 -41 5
-56 2 -106 -24 -32 -17 -64 -31 -71 -31 -24 0 -24 -15 0 -111 14 -52 25 -96
25 -98 0 -2 -35 -1 -78 3 -74 6 -80 5 -124 -23 -70 -45 -83 -70 -83 -167 l0
-83 -37 -15 c-78 -30 -188 -100 -182 -116 9 -25 42 -153 51 -195 8 -37 11 -40
63 -57 30 -9 75 -17 99 -17 40 -1 43 -3 37 -23 -4 -13 -9 -45 -12 -73 -5 -42
-2 -56 18 -85 27 -40 82 -73 149 -91 41 -11 53 -10 95 6 29 10 66 36 90 61
l42 44 35 -43 c19 -24 50 -67 67 -97 17 -29 42 -68 56 -85 17 -22 23 -41 19
-57 -6 -25 -35 -344 -35 -383 0 -24 2 -25 74 -25 41 0 87 -5 102 -10 15 -6 28
-9 31 -7 2 2 -1 37 -7 78 -5 41 -14 130 -20 198 -6 69 -17 137 -24 153 -8 15
-11 28 -6 28 4 0 13 14 20 30 7 17 26 43 42 58 16 15 38 43 48 62 37 71 110
121 110 75 0 -7 23 -34 51 -59 67 -60 99 -61 209 -6 96 49 115 75 107 159 -2
31 -7 63 -11 71 -5 13 6 18 56 29 84 17 118 36 118 64 0 41 30 125 55 155 l25
30 -35 30 c-19 17 -73 50 -120 73 -47 23 -85 47 -85 53 0 6 5 29 10 51 5 22 7
65 4 96 l-6 56 -69 33 c-66 32 -70 33 -135 24 -51 -8 -67 -8 -71 2 -2 7 5 46
16 86 12 41 21 81 21 90 0 10 -28 27 -77 48 -64 26 -86 31 -124 27 -45 -6 -47
-4 -54 21 -12 48 -46 92 -98 127 -29 19 -56 35 -62 34 -5 0 -36 -18 -68 -40z
m201 -1154 c28 -9 52 -19 52 -22 0 -3 -17 -24 -38 -47 -20 -22 -49 -57 -64
-76 l-28 -35 0 102 c0 77 3 101 13 98 6 -2 36 -11 65 -20z m-178 -80 c0 -52
-2 -95 -4 -95 -3 0 -20 26 -40 58 -19 32 -45 67 -56 77 l-21 19 48 17 c76 27
73 30 73 -76z"/>
<path d="M4920 3124 c-47 -2 -139 -8 -205 -14 -182 -15 -344 -28 -515 -40 -85
-6 -216 -19 -290 -30 -74 -11 -186 -24 -248 -30 -520 -48 -1281 -236 -1832
-452 -126 -49 -368 -154 -493 -214 -61 -28 -86 -45 -76 -49 26 -10 262 43 444
100 256 80 438 134 560 167 330 88 530 138 610 153 50 9 126 25 170 36 218 56
847 142 1190 164 55 4 172 13 260 21 88 8 315 17 505 21 400 6 623 -7 1340
-78 133 -13 288 -36 366 -54 33 -8 105 -21 159 -30 193 -31 696 -144 855 -192
47 -14 139 -40 205 -58 200 -55 332 -94 515 -155 210 -70 285 -90 338 -90 59
0 59 14 -1 35 -29 10 -99 40 -157 68 -179 85 -230 107 -405 179 -204 83 -395
150 -529 184 -55 14 -131 36 -170 49 -39 13 -120 34 -181 45 -60 12 -141 30
-180 40 -238 63 -854 155 -1210 180 -449 32 -580 39 -750 43 -104 2 -228 2
-275 1z"/>
</g>
</svg>
